<svg xmlns="http://www.w3.org/2000/svg" version="1.1" xmlns:xlink="http://www.w3.org/1999/xlink" xmlns:svgjs="http://svgjs.com/svgjs" width="1920" height="1080" preserveAspectRatio="none" viewBox="0 0 1920 1080"><g mask="url(&quot;#SvgjsMask1072&quot;)" fill="none"><rect width="1920" height="1080" x="0" y="0" fill="rgba(0, 0, 0, 0.13)"></rect><path d="M0,823.338C151.366,818.467,250.079,669.074,374.503,582.738C493.701,500.028,664.232,462.488,715.591,326.8C766.911,191.216,678.922,45.741,629.323,-90.483C588.598,-202.335,527.376,-299.625,453.521,-392.978C376.341,-490.534,307.607,-606.422,189.724,-646.14C70.498,-686.311,-55.236,-633.887,-177.851,-605.706C-308.375,-575.707,-447.81,-563.269,-549.59,-476.222C-658.821,-382.803,-739.758,-251.56,-758.553,-109.063C-777.26,32.766,-717.055,170.368,-651.657,297.602C-588.626,420.232,-497.632,520.774,-390.32,607.35C-272.197,702.648,-151.693,828.219,0,823.338" fill="rgba(0, 0, 0, 0.13)"></path><path d="M1920 1785.1770000000001C2059.703 1791.562 2193.958 1760.2730000000001 2323.802 1708.328 2478.4 1646.48 2667.203 1604.104 2743.09 1455.892 2819.087 1307.465 2769.984 1120.1779999999999 2703.169 967.397 2644.675 833.644 2493.259 776.432 2397.684 666.0840000000001 2302.079 555.701 2283.277 361.11400000000003 2142.976 320.61300000000006 2002.575 280.08399999999995 1886.223 448.216 1742.969 477.08799999999997 1578.728 510.18899999999996 1371.167 383.547 1251.071 500.37 1133.893 614.355 1233.548 816.899 1225.778 980.186 1218.9 1124.731 1148.33 1273.325 1208.02 1405.15 1267.7530000000002 1537.07 1411.489 1604.28 1539.243 1672.47 1658.4270000000001 1736.086 1785.042 1779.009 1920 1785.1770000000001" fill="rgba(0, 0, 0, 0.13)"></path></g><defs><mask id="SvgjsMask1072"><rect width="1920" height="1080" fill="#ffffff"></rect></mask></defs></svg>